<?xml version="1.0" encoding="UTF-8" standalone="no"?>
<!-- Created with Inkscape (http://www.inkscape.org/) -->

<svg
   width="1000mm"
   height="1000mm"
   viewBox="0 0 1000 1000"
   version="1.1"
   id="svg1"
   xmlns="http://www.w3.org/2000/svg"
   xmlns:svg="http://www.w3.org/2000/svg">
  <defs
     id="defs1" />
  <g
     id="layer2"
     style="display:inline">
    <g
       id="g21"
       transform="matrix(0.94710245,0,0,0.9470607,26.448062,11.316006)"
       style="stroke-width:1.05588">
      <path
         id="shield-knot-outline"
         style="color:#000000;display:inline;fill:#000000;stroke-width:1.07622;stroke-linejoin:round;-inkscape-stroke:none"
         d="m 589.19689,-11.943681 c -13.36078,0.36159 -26.51857,4.5332499 -37.91797,11.45312987 C 538.22751,7.4380589 527.40071,19.163849 521.09211,33.117469 c -5.75288,12.59956 -8.02591,26.62401 -7.4206,40.41713 0.0773,8.22198 0.0137,16.445 0.0394,24.66742 0.0285,82.612241 0.0571,165.224481 0.0856,247.836721 -9.24869,-0.004 -18.49739,-0.008 -27.74609,-0.0117 -0.0618,-94.77863 -0.11853,-189.55741 -0.18359,-284.335941 -1.43317,-27.02672 -18.05024,-52.7593601 -42.242,-64.9642201 -17.4981,-8.8789699 -38.28653,-10.8699299 -57.21504,-5.80336 C 301.53716,9.3149189 221.05842,48.613029 154.58437,104.6296 89.60603,159.25585 37.66933,229.3911 4.8345004,307.70399 -9.4176396,341.62807 -20.42174,376.9822 -27.02766,413.20337 c -1.42001,8.56005 -1.11396,17.36326 0.62687,25.85296 3.84801,19.18589 14.96642,36.95727 30.9877604,48.29197 14.5593496,10.38274 32.6680096,15.40185 50.4833596,14.77832 91.62487,-0.0181 183.24974,-0.0221 274.87461,-0.0117 0,9.31185 0,18.62369 0,27.93554 -94.76495,0.0612 -189.53006,0.11723 -284.29492,0.18164 -26.98915,1.43176 -52.6981896,17.9959 -64.91756,42.14229 -8.94912,17.54297 -10.93388,38.41218 -5.84017,57.40263 18.8276904,86.66543 59.34778,168.59738 117.19322,235.86029 53.57276,62.39483 121.52178,112.47813 197.26475,144.59619 34.49671,14.6465 70.45203,26.0695 107.36294,32.7412 6.41418,1.1852 13.00324,1.1969 19.47673,0.5336 19.91244,-2.1357 38.93854,-12.1239 51.73517,-27.5718 11.70751,-14.0912 18.14819,-32.37287 18.13633,-50.67303 0.11648,-8.56355 -0.0493,-17.12801 0.0236,-25.69191 -0.0213,-84.47709 -0.0333,-168.95417 -0.0365,-253.43125 9.27343,0.0134 18.54687,0.0186 27.82031,0.0156 0.0866,94.75519 0.16803,189.51053 0.25781,284.26563 1.41747,26.60279 17.5162,51.96716 41.12017,64.37976 17.8942,9.4679 39.40563,11.5861 58.89736,6.2665 69.59041,-15.3013 136.23549,-44.25942 194.49912,-85.33502 65.79061,-46.23365 121.16333,-107.32537 160.24776,-177.63069 26.58186,-47.53241 46.02564,-99.10776 56.90974,-152.48782 1.597,-7.77167 2.6359,-15.74978 1.8672,-23.687 -1.8074,-22.25316 -13.5177,-43.619 -31.63832,-56.74553 -14.40422,-10.50007 -32.40634,-15.71953 -50.17686,-15.19946 -32.70007,0.0678 -65.40026,0.0212 -98.10039,0.0431 -59.26784,0.008 -118.53567,0.0167 -177.80351,0.0251 -0.007,-9.29622 -0.0143,-18.59244 -0.0215,-27.88867 94.84048,-0.0436 189.68111,-0.0821 284.52149,-0.12891 27.52321,-1.44371 53.66839,-18.70973 65.58569,-43.59628 8.3822,-17.29422 10.036,-37.61315 5.0765,-56.13809 -16.7628,-77.0067 -50.68126,-150.39348 -98.66169,-212.99786 -34.04304,-44.40819 -75.12143,-83.38673 -121.12039,-115.233231 -30.5636,-21.15986 -63.33556,-39.1318 -97.64116,-53.45195 -33.88653,-14.1877501 -69.19422,-25.1518001 -105.37768,-31.64706 -4.31372,-0.82275 -8.73231,-0.9457 -13.11329,-0.91211 z m 81.2461,187.060551 c 40.28478,20.2964 77.11454,47.5161 107.90234,80.54492 25.13394,26.90319 46.42271,57.46399 62.81836,90.43164 -57.08724,-0.0124 -114.17448,-0.0247 -171.26172,-0.0371 -0.0202,-57.07942 -0.0404,-114.15885 -0.0606,-171.23828 0.20053,0.0996 0.40105,0.19922 0.60157,0.29883 z m -340.50781,19.98242 c 0.0167,50.30339 0.0101,100.60677 0.01,150.91016 -57.02539,-0.013 -114.05078,-0.026 -171.07617,-0.0391 26.96721,-54.1778 67.02249,-101.84307 115.97656,-137.4432 17.35783,-12.72951 35.80451,-23.95312 55.07227,-33.57242 0.006,6.71484 0.0117,13.42969 0.0176,20.14453 z m 183.88671,307.04492 c 0.007,9.30209 0.0143,18.60417 0.0215,27.90625 -9.26432,0 -18.52865,0 -27.79297,0 0,-9.30599 0,-18.61198 0,-27.91797 9.25716,0.004 18.51432,0.008 27.77148,0.0117 z M 329.94494,857.20281 C 279.399,832.06117 234.56689,795.55363 199.87071,751.01101 c -15.2057,-19.49608 -28.60334,-40.46658 -39.78183,-62.54067 -0.38782,-0.77017 -0.77565,-1.54033 -1.16347,-2.3105 57.00651,-10e-4 114.01302,-0.003 171.01953,-0.004 0,57.01563 0,114.03125 0,171.04688 z M 841.11291,686.15593 c -25.70556,51.65304 -63.29583,97.38717 -109.21489,132.40292 -19.32595,14.79969 -40.05463,27.76986 -61.84761,38.61661 -0.0254,-57.00651 -0.0508,-114.01302 -0.0762,-171.01953 57.04622,0 114.09245,0 171.13867,0 z" />
      <path
         id="shield-knot-color"
         style="color:#000000;display:inline;fill:#2dc900;fill-opacity:1;stroke:none;stroke-width:1.05588;stroke-linejoin:round;stroke-opacity:1;-inkscape-stroke:none"
         d="m 590.5717,25.98438 c -21.04867,0.587214 -38.80935,17.858665 -38.8121,39.997559 0,99.363521 0.0419,198.717361 0.0749,298.075861 h 0.0248 v 100.0001 c 0.007,21.33666 0.0113,42.67339 0.0155,64.01005 h 80.00029 c -0.003,-13.01281 -0.006,-26.02574 -0.009,-39.03845 h -0.002 v -7.97884 c -10e-4,-5.65952 -0.002,-11.31926 -0.004,-16.97881 h 0.004 v -80.00028 h -0.0238 c -0.0283,-88.68971 -0.0601,-177.38903 -0.0667,-266.07575 125.79086,41.58383 224.57776,140.34055 266.19926,266.11864 l -226.10868,-0.0367 v 80.00028 l 278.13031,0.0444 c 25.30883,0.002 44.25909,-23.20379 39.19916,-48.00172 C 949.16891,220.12797 795.75605,66.758135 599.75202,26.788466 596.65307,26.156919 593.57869,25.900495 590.5717,25.98438 Z M 409.15539,26.0283 c -3.00801,-0.08249 -6.08315,0.175781 -9.1829,0.809253 C 204.13493,66.875827 50.868435,220.1285 10.81071,415.96213 5.7421542,440.75788 24.683773,463.97027 49.992297,463.9778 l 317.994023,0.0512 v 0.29662 h 79.99977 v -0.28318 l 63.87311,0.009 v -79.99977 l -63.87259,-0.009 -80.00029,-0.014 -265.94552,-0.0429 C 143.66375,258.3407 242.33733,159.67704 367.98632,118.0661 v 224.94079 h 80.00029 V 66.026897 c -0.002,-22.146912 -17.77523,-39.42114 -38.83122,-39.998592 z m -41.16907,478.29743 v 23.74222 40.00014 79.99977 265.91193 C 242.33984,872.3697 143.6673,773.70936 102.04287,648.06786 H 327.98618 V 568.06809 H 50.000049 c -25.311722,0.003 -44.2585326,23.21627 -39.189339,48.01515 40.057732,195.83365 193.32418,349.08684 389.16178,389.12506 24.79817,5.0678 48.01076,-13.87852 48.0136,-39.18931 V 688.06748 648.06786 568.06757 504.32573 Z m 119.99991,63.74184 v 80.00029 h 43.89862 v -0.35089 h 100.00009 v 40.00015 h -79.97082 c 0.0312,92.76787 0.0633,185.54193 0.0703,278.30394 0.004,25.30991 23.2162,44.25494 48.0136,39.18724 195.83761,-40.0382 349.10454,-193.29141 389.16229,-389.12506 5.06907,-24.7981 -13.8769,-48.01133 -39.18778,-48.01515 H 631.88494 531.88485 v -5.2e-4 z m 143.91783,80.00029 h 266.02356 c -41.62592,125.646 -140.30397,224.30866 -265.95689,265.91606 -0.0124,-88.64245 -0.0364,-177.2766 -0.0667,-265.91606 z" />
    </g>
  </g>
</svg>
